<?xml version="1.0" standalone="no"?>
<!DOCTYPE svg PUBLIC "-//W3C//DTD SVG 20010904//EN"
 "http://www.w3.org/TR/2001/REC-SVG-20010904/DTD/svg10.dtd">
<svg version="1.0" xmlns="http://www.w3.org/2000/svg"
 width="100.000000pt" height="100.000000pt" viewBox="0 0 100.000000 100.000000"
 preserveAspectRatio="xMidYMid meet">

<g transform="translate(0.000000,100.000000) scale(0.100000,-0.100000)"
fill="#00008B" stroke="none">
<path d="M265 650 l-150 -150 152 -152 153 -153 50 50 50 49 -55 56 c-30 31
-55 59 -55 63 0 4 106 7 235 7 l236 0 -3 78 -3 77 -234 3 -235 2 57 58 57 58
-53 52 -52 52 -150 -150z m164 -16 c-34 -35 -58 -67 -55 -73 5 -8 83 -11 247
-11 l239 0 0 -55 0 -55 -245 0 c-186 0 -245 -3 -245 -12 0 -7 27 -40 60 -73
l60 -61 -35 -34 -36 -34 -137 137 -137 137 135 135 134 135 38 -37 38 -37 -61
-62z" />
<path d="M315 630 c-49 -49 -85 -90 -80 -90 6 0 51 41 100 90 49 50 85 90 80
90 -6 0 -51 -40 -100 -90z"/>
<path d="M195 490 c3 -5 8 -10 11 -10 2 0 4 5 4 10 0 6 -5 10 -11 10 -5 0 -7
-4 -4 -10z"/>
<path d="M240 445 c7 -9 15 -13 17 -11 7 7 -7 26 -19 26 -6 0 -6 -6 2 -15z"/>
<path d="M355 330 c32 -33 61 -57 64 -54 6 6 -100 114 -113 114 -6 0 16 -27
49 -60z"/>
</g>
</svg>
