<?xml version="1.0" standalone="no"?>
<!DOCTYPE svg PUBLIC "-//W3C//DTD SVG 20010904//EN"
 "http://www.w3.org/TR/2001/REC-SVG-20010904/DTD/svg10.dtd">
<svg version="1.0" xmlns="http://www.w3.org/2000/svg"
 width="100.000000pt" height="100.000000pt" viewBox="0 0 100.000000 100.000000"
 preserveAspectRatio="xMidYMid meet">

<g transform="translate(0.000000,100.000000) scale(0.100000,-0.100000)"
fill="#00008B" stroke="none">
<path d="M525 750 l-49 -50 59 -60 59 -60 -237 0 -237 0 0 -80 0 -80 237 0
237 0 -59 -60 -60 -60 53 -53 52 -52 152 153 153 152 -150 150 c-82 82 -152
150 -155 150 -3 0 -28 -23 -55 -50z m195 -115 l135 -135 -138 -137 -137 -138
-37 38 -38 37 63 63 c34 34 62 66 62 70 0 4 -110 7 -245 7 l-245 0 0 60 0 60
245 0 c135 0 245 3 245 7 0 4 -28 36 -62 70 l-62 63 34 35 c19 19 36 35 40 35
3 0 66 -61 140 -135z"/>
<path d="M580 724 c0 -13 108 -119 114 -113 3 3 -21 32 -54 64 -33 33 -60 55
-60 49z"/>
<path d="M745 550 c10 -11 20 -18 23 -15 7 6 -18 35 -31 35 -5 0 -2 -9 8 -20z"/>
<path d="M790 505 c7 -9 15 -13 17 -11 7 7 -7 26 -19 26 -6 0 -6 -6 2 -15z"/>
<path d="M665 370 c-49 -49 -87 -92 -84 -94 3 -3 47 37 99 89 52 52 90 95 85
95 -6 0 -51 -40 -100 -90z"/>
</g>
</svg>
