<svg id="Слой_1" data-name="Слой 1" xmlns="http://www.w3.org/2000/svg" viewBox="0 0 123.82 129.82"><defs><style>.cls-1{fill:#1e1e1e;}.cls-2{fill:#f39322;}</style></defs><path class="cls-1" d="M346.43,483.64a1.86,1.86,0,0,1-.88-.23L239.19,422a1.74,1.74,0,0,1,0-3l106.36-61.42a1.86,1.86,0,0,1,.88-.23,1.75,1.75,0,0,1,1.56,2.53c-17.76,35.69-17.74,75.4.07,121.41a1.75,1.75,0,0,1-1.63,2.38Z" transform="translate(-236.56 -355.57)"/><path class="cls-2" d="M346.43,359.07c-18.95,38.07-16.82,79.36,0,122.82L240.06,420.48l106.37-61.41m0-3.5a3.43,3.43,0,0,0-1.75.47L238.31,417.45a3.5,3.5,0,0,0,0,6.06l106.37,61.41a3.43,3.43,0,0,0,1.75.47,3.5,3.5,0,0,0,3.26-4.76c-17.62-45.53-17.66-84.78-.13-120a3.5,3.5,0,0,0-3.13-5.06Zm0,7Z" transform="translate(-236.56 -355.57)"/><path class="cls-1" d="M356.88,483.64a1.75,1.75,0,0,1-1.59-1c-19.46-42.07-19.44-89.74.06-124.42a1.76,1.76,0,0,1,1.53-.89,1.72,1.72,0,0,1,.63.12,1.74,1.74,0,0,1,1.07,2c-10.37,44.08-6.12,81.4,0,122.16a1.74,1.74,0,0,1-1.73,2Z" transform="translate(-236.56 -355.57)"/><path class="cls-2" d="M356.88,359.07c-10.23,43.45-6.55,79.43,0,122.82-17.56-37.95-21-85.53,0-122.82m0-3.5a3.49,3.49,0,0,0-3.05,1.78c-10.21,18.15-15.36,39.92-14.9,62.95a159.09,159.09,0,0,0,14.77,63.06,3.5,3.5,0,0,0,6.64-2c-6.13-40.58-10.36-77.72-.06-121.5a3.5,3.5,0,0,0-2.13-4.06,3.57,3.57,0,0,0-1.27-.24Zm0,7Z" transform="translate(-236.56 -355.57)"/></svg>