<?xml version="1.0" encoding="iso-8859-1"?>
<!-- Generator: Adobe Illustrator 19.0.0, SVG Export Plug-In . SVG Version: 6.00 Build 0)  -->
<svg version="1.1" id="Layer_1" xmlns="http://www.w3.org/2000/svg" xmlns:xlink="http://www.w3.org/1999/xlink" x="0px" y="0px"
	 viewBox="0 0 512 512" style="enable-background:new 0 0 512 512;" xml:space="preserve">
<path style="fill:#FFC61B;" d="M108.432,512c-5.363,0-10.754-1.238-15.775-3.752c-11.973-5.995-19.41-18.04-19.41-31.429V199.195
	c0-7.642,6.196-13.836,13.836-13.836c7.64,0,13.836,6.195,13.836,13.836v277.624c0,4.168,2.888,6.063,4.129,6.686
	c1.241,0.621,4.49,1.799,7.826-0.699L408.08,261.987c2.61-1.951,2.998-4.588,2.998-5.987s-0.389-4.036-2.998-5.988L112.875,29.195
	c-3.335-2.497-6.586-1.32-7.826-0.699c-1.241,0.623-4.129,2.518-4.129,6.686v57.144c0,7.642-6.196,13.836-13.836,13.836
	s-13.836-6.195-13.836-13.836V35.182c0-13.389,7.437-25.433,19.41-31.429c11.97-5.995,26.069-4.739,36.795,3.282l295.206,220.818
	c8.958,6.701,14.095,16.961,14.095,28.147c0,11.187-5.137,21.446-14.095,28.146l-295.207,220.82
	C123.224,509.623,115.857,512,108.432,512z"/>
<polygon style="fill:#FEE187;" points="150.989,120.234 150.989,391.766 332.492,256 "/>
<path style="fill:#FFC61B;" d="M150.987,405.604c-2.113,0-4.235-0.483-6.195-1.465c-4.684-2.345-7.64-7.134-7.64-12.371V120.233
	c0-5.238,2.958-10.027,7.64-12.371c4.682-2.345,10.292-1.844,14.484,1.292L340.78,244.921c3.491,2.612,5.548,6.719,5.548,11.08
	c0,4.361-2.056,8.468-5.548,11.08L159.277,402.849C156.839,404.671,153.922,405.604,150.987,405.604z M164.825,147.863v216.276
	l144.566-108.137L164.825,147.863z"/>
<g>
</g>
<g>
</g>
<g>
</g>
<g>
</g>
<g>
</g>
<g>
</g>
<g>
</g>
<g>
</g>
<g>
</g>
<g>
</g>
<g>
</g>
<g>
</g>
<g>
</g>
<g>
</g>
<g>
</g>
</svg>
