<svg id="Layer_1" enable-background="new 0 0 56.69 56.69" height="512" viewBox="0 0 56.69 56.69" width="512"
     xmlns="http://www.w3.org/2000/svg">
  <g>
    <path
      d="m4.122 25.853 17.661-17.66c1.322-1.322 3.627-1.322 4.949 0 .661.661 1.025 1.54 1.025 2.475s-.364 1.814-1.025 2.475l-11.687 11.685h35.05c1.93 0 3.5 1.57 3.5 3.5s-1.57 3.5-3.5 3.5h-35.05l11.686 11.686c.661.661 1.025 1.54 1.025 2.475s-.364 1.813-1.025 2.475-1.54 1.024-2.475 1.024-1.813-.364-2.475-1.025l-17.653-17.652c-.17-.178-1.027-1.113-.998-2.556.028-1.343.805-2.206.992-2.402zm1.419 3.541 17.654 17.654c.566.566 1.555.566 2.121 0 .283-.283.439-.66.439-1.061s-.156-.777-.439-1.061l-15.1-15.1h39.878c.826 0 1.5-.673 1.5-1.5s-.674-1.5-1.5-1.5h-39.877l15.1-15.099c.283-.284.439-.66.439-1.061 0-.4-.156-.777-.439-1.06-.283-.281-.66-.438-1.061-.438-.4 0-.777.156-1.061.439l-17.66 17.66c-.072.074-.436.462-.432 1.07.004.602.364.982.438 1.057z"/>
  </g>
</svg>
