<svg id="Layer_1" enable-background="new 0 0 56.689 56.689" height="512" viewBox="0 0 56.689 56.689" width="512" xmlns="http://www.w3.org/2000/svg"><g><path d="m52.562 30.811-17.653 17.651c-.661.662-1.54 1.026-2.475 1.026s-1.813-.363-2.476-1.024c-.66-.66-1.024-1.54-1.024-2.476 0-.935.364-1.813 1.024-2.475l11.687-11.687h-35.05c-1.931 0-3.5-1.57-3.5-3.5 0-1.931 1.569-3.5 3.5-3.5h35.049l-11.685-11.682c-.66-.661-1.024-1.54-1.024-2.476s.364-1.813 1.024-2.476c1.321-1.32 3.627-1.321 4.949 0l17.661 17.66c.164.164 1.032 1.066 1.025 2.492-.007 1.412-.865 2.301-1.032 2.467zm-1.408-3.541-17.66-17.663c-.565-.564-1.556-.565-2.121 0-.283.283-.438.66-.438 1.062 0 .4.155.776.438 1.062l15.101 15.1h-39.879v-.003c-.827 0-1.5.673-1.5 1.5 0 .826.673 1.5 1.5 1.5h39.877l-15.1 15.1c-.283.282-.438.659-.438 1.061s.155.777.438 1.063c.565.565 1.555.565 2.121 0l17.653-17.652c.084-.081.42-.423.456-.973.042-.66-.383-1.093-.448-1.157z"/></g></svg>